<?xml version="1.0" standalone="no"?>
<!DOCTYPE svg PUBLIC "-//W3C//DTD SVG 20010904//EN"
 "http://www.w3.org/TR/2001/REC-SVG-20010904/DTD/svg10.dtd">
<svg version="1.0" xmlns="http://www.w3.org/2000/svg"
 width="300.000000pt" height="300.000000pt" viewBox="0 0 300.000000 300.000000"
 preserveAspectRatio="xMidYMid meet">
<metadata>
Created by potrace 1.11, written by Peter Selinger 2001-2013
</metadata>
<g transform="translate(0.000000,300.000000) scale(0.100000,-0.100000)"
fill="#000000" stroke="none">
<path d="M1395 2669 c-51 -7 -172 -37 -184 -45 -2 -2 10 -19 27 -38 16 -19 33
-49 37 -66 8 -35 -2 -117 -14 -124 -12 -8 -80 52 -96 84 -8 16 -15 47 -15 70
0 22 -2 40 -5 40 -9 0 -67 -31 -100 -54 -16 -11 -68 -59 -115 -106 -67 -67
-96 -105 -133 -177 -40 -78 -87 -217 -87 -258 0 -7 18 -17 41 -24 40 -12 109
-74 109 -98 0 -10 -67 -30 -90 -26 -3 0 -19 3 -36 6 l-32 6 4 -42 c2 -23 6
-60 9 -82 l5 -40 69 0 c62 0 73 -3 108 -31 55 -45 54 -60 -6 -78 -44 -13 -58
-13 -95 -2 l-44 14 11 -27 c98 -226 293 -396 527 -460 41 -12 86 -21 101 -21
24 0 27 5 36 50 31 156 -14 309 -123 416 -92 90 -274 174 -431 199 -68 11 -50
22 30 19 105 -5 185 -15 221 -30 16 -6 17 -4 8 12 -15 28 -110 119 -166 159
-68 48 -69 50 -1 18 83 -39 193 -101 200 -113 3 -6 11 -10 16 -10 9 0 3 104
-6 120 -2 3 -6 24 -10 48 -3 23 -12 63 -20 89 -8 26 -13 48 -11 50 5 6 73
-150 90 -207 9 -30 19 -80 22 -110 6 -53 9 -58 94 -142 l88 -87 -4 62 c-4 73
-23 263 -28 292 -2 11 -7 42 -10 68 -4 27 -10 59 -12 70 -3 12 -6 70 -8 129
-4 113 10 209 37 268 l16 35 -6 -45 c-6 -47 -5 -177 1 -220 16 -112 19 -122
41 -130 67 -25 224 -15 285 19 24 14 24 13 10 -5 -55 -69 -152 -112 -244 -107
-22 1 -27 -2 -23 -15 34 -115 77 -280 83 -317 l7 -47 31 58 c35 67 149 187
216 229 25 16 71 39 103 52 65 26 189 55 181 42 -3 -5 -11 -9 -18 -9 -19 0
-135 -58 -171 -86 -18 -14 -35 -34 -38 -44 -5 -19 0 -20 75 -20 131 0 197 27
210 85 5 18 6 18 15 -5 13 -32 0 -80 -30 -103 -52 -42 -114 -57 -252 -61 -72
-3 -75 -4 -110 -42 -125 -136 -186 -295 -178 -465 2 -41 9 -95 16 -120 l12
-47 66 18 c240 62 446 244 535 471 29 73 27 94 -6 64 -31 -28 -99 -31 -155 -6
l-48 21 24 26 c50 54 124 69 194 40 l34 -14 6 53 c10 76 12 145 5 185 -4 27
-10 35 -28 36 -53 3 -52 2 -41 31 5 14 18 38 28 52 18 24 18 26 -2 83 -18 50
-24 57 -42 51 -11 -3 -35 -9 -52 -13 -31 -8 -33 -7 -33 21 0 17 9 48 21 70 19
39 19 42 3 67 -20 32 -171 182 -183 182 -5 0 -12 -15 -15 -34 -7 -36 -63 -100
-97 -111 -26 -9 -27 -7 -35 39 -6 42 16 115 42 136 7 7 14 16 14 20 0 10 -140
65 -190 75 -19 3 -42 9 -51 11 -12 3 -18 -4 -22 -25 -4 -17 -20 -45 -36 -63
-36 -40 -45 -34 -70 43 -10 29 -24 53 -32 54 -8 1 -41 -2 -74 -6z m267 -275
c0 -48 -27 -101 -69 -134 -31 -24 -40 -20 -53 30 -16 61 1 118 51 164 l42 39
14 -27 c8 -16 15 -48 15 -72z m-547 -39 c39 -29 69 -88 67 -134 -1 -18 -3 -36
-6 -38 -7 -7 -80 27 -105 50 -31 29 -51 77 -51 123 0 36 1 36 32 30 17 -3 46
-17 63 -31z m891 -80 c-7 -58 -36 -104 -82 -131 -62 -36 -80 -30 -76 26 3 58
39 112 93 138 52 26 71 16 65 -33z m-1090 -71 c35 -17 69 -63 84 -113 7 -24 5
-30 -10 -34 -30 -8 -118 28 -145 59 -25 29 -48 90 -40 105 7 11 73 1 111 -17z"/>
<path d="M844 873 c3 -10 13 -45 22 -78 21 -71 21 -71 23 -90 0 -8 7 -15 14
-15 9 0 23 33 38 85 23 84 33 91 45 32 9 -50 32 -111 41 -114 11 -4 68 186 58
195 -9 9 -13 -1 -35 -83 -12 -44 -23 -81 -24 -83 -2 -2 -7 13 -10 32 -14 72
-37 136 -50 136 -7 0 -17 -15 -21 -32 -4 -18 -9 -39 -11 -45 -2 -7 -6 -21 -8
-30 -3 -10 -5 -19 -6 -20 -3 -4 -7 -19 -9 -35 -2 -13 -19 37 -41 120 -6 23
-15 42 -21 42 -6 0 -8 -8 -5 -17z"/>
<path d="M1431 790 c2 -55 6 -100 11 -100 4 0 8 45 8 100 0 63 -4 100 -10 100
-7 0 -10 -36 -9 -100z"/>
<path d="M1621 883 c1 -5 1 -21 0 -37 -1 -23 -4 -27 -13 -18 -18 18 -63 15
-80 -5 -57 -66 3 -166 75 -128 19 10 27 10 31 2 2 -7 5 34 5 91 1 62 -3 102
-9 102 -5 0 -9 -3 -9 -7z m-17 -72 c21 -17 21 -75 0 -95 -36 -36 -78 -8 -78
51 0 53 40 76 78 44z"/>
<path d="M1703 790 c-1 -55 3 -100 8 -100 5 0 9 45 9 100 0 55 -4 100 -8 100
-5 0 -9 -45 -9 -100z"/>
<path d="M1780 881 c0 -6 5 -13 10 -16 6 -3 10 1 10 9 0 9 -4 16 -10 16 -5 0
-10 -4 -10 -9z"/>
<path d="M2039 883 c-6 -55 -2 -192 6 -190 6 2 10 13 10 24 0 11 6 27 14 37
12 15 16 13 43 -24 16 -22 34 -40 39 -40 10 0 -12 40 -39 72 -13 16 -11 21 18
48 45 42 21 38 -30 -5 -23 -19 -43 -35 -45 -35 -1 0 -1 27 0 60 2 33 -1 60 -6
60 -5 0 -9 -3 -10 -7z"/>
<path d="M1146 821 c-20 -22 -26 -67 -13 -98 9 -20 30 -33 64 -39 24 -4 54 31
60 69 5 31 1 42 -17 62 -28 30 -70 32 -94 6z m65 -2 c27 -14 38 -48 27 -82
-12 -34 -53 -47 -76 -23 -23 22 -21 85 3 102 23 17 21 17 46 3z"/>
<path d="M1320 840 c-1 -3 -2 -36 -3 -75 -1 -74 16 -90 19 -18 1 45 17 73 40
73 8 0 14 5 14 10 0 14 -12 12 -37 -5 -20 -14 -22 -13 -26 2 -3 10 -6 16 -7
13z"/>
<path d="M1787 833 c-9 -17 -6 -143 3 -143 6 0 10 32 10 75 0 70 -3 86 -13 68z"/>
<path d="M1869 840 c-7 -22 -5 -150 1 -150 5 0 10 25 12 56 2 44 8 60 24 70
17 12 23 12 38 1 14 -10 19 -27 19 -70 0 -31 3 -57 8 -57 16 0 10 117 -7 134
-18 18 -60 21 -70 5 -4 -8 -9 -7 -15 2 -5 8 -9 12 -10 9z"/>
<path d="M389 490 c-1 -39 -1 -154 0 -213 1 -26 5 -37 14 -34 7 2 12 23 12 58
l0 54 50 3 c70 3 93 10 115 32 23 23 26 57 8 94 -14 33 -36 39 -125 41 l-73 0
-1 -35z m128 11 c30 -1 53 -27 53 -60 0 -41 -23 -55 -93 -55 l-62 -1 -1 50 c0
62 6 70 48 68 18 -1 43 -2 55 -2z"/>
<path d="M756 482 c-13 -26 -29 -65 -36 -87 -7 -22 -21 -56 -30 -75 -28 -57
-33 -80 -17 -80 8 0 22 20 32 45 l17 46 66 -3 65 -3 16 -42 c16 -45 49 -63 35
-20 -24 78 -100 257 -111 261 -8 3 -22 -13 -37 -42z m78 -107 c5 -19 1 -21
-50 -22 -48 -1 -54 1 -49 16 4 9 16 40 28 70 l21 55 22 -50 c12 -27 24 -58 28
-69z"/>
<path d="M1019 513 c0 -7 -1 -70 -1 -140 -1 -106 1 -129 14 -131 11 -2 14 8
13 50 -1 29 0 58 2 65 4 11 103 15 130 5 14 -5 35 -73 31 -99 -2 -10 5 -19 16
-21 14 -3 17 0 12 13 -3 9 -6 32 -6 51 0 20 -8 42 -19 53 -18 18 -18 19 0 35
11 9 20 23 20 31 1 8 2 21 3 28 4 20 -13 46 -37 59 -31 17 -177 18 -178 1z
m172 -29 c25 -22 24 -49 -1 -74 -17 -17 -31 -20 -83 -18 l-62 3 0 50 c0 45 2
51 24 55 45 9 102 2 122 -16z"/>
<path d="M1376 523 c-3 -3 -6 -69 -6 -145 0 -107 3 -139 13 -136 9 4 12 42 13
141 2 126 -3 157 -20 140z"/>
<path d="M1664 518 c-6 -7 -10 -56 -9 -108 2 -125 -7 -150 -50 -150 -36 0 -55
17 -58 49 -2 26 -27 28 -27 2 0 -49 40 -80 94 -75 57 6 67 28 69 153 2 122 -2
152 -19 129z"/>
<path d="M1865 431 c-21 -53 -46 -115 -56 -138 -23 -50 -23 -53 -5 -53 12 0
22 18 40 73 5 15 16 17 72 15 l67 -3 16 -42 c8 -24 21 -43 29 -43 9 0 12 6 8
18 -55 155 -102 261 -116 265 -14 4 -25 -15 -55 -92z m78 -1 c8 -25 18 -52 22
-61 5 -15 -1 -17 -47 -15 -29 0 -52 5 -51 11 8 40 46 126 53 119 4 -5 14 -29
23 -54z"/>
<path d="M2237 519 c-9 -6 -17 -14 -17 -20 0 -5 -22 -63 -50 -129 -27 -66 -50
-122 -50 -125 0 -3 6 -5 14 -5 7 0 21 20 31 45 l17 46 66 -3 65 -3 16 -42 c8
-24 21 -43 28 -43 7 0 13 3 13 8 0 9 -105 270 -111 276 -2 3 -12 0 -22 -5z
m33 -86 c11 -32 21 -62 21 -68 -1 -5 -24 -11 -52 -12 -44 -1 -50 1 -44 15 4 9
16 41 27 70 12 28 22 52 24 52 2 0 12 -26 24 -57z"/>
<path d="M2420 512 c0 -7 6 -12 13 -11 6 1 28 1 48 0 l37 -1 -2 -121 c0 -66 2
-126 5 -131 17 -28 25 12 24 126 l-1 126 26 1 c14 1 39 0 55 -1 24 -1 28 1 17
11 -18 19 -222 20 -222 1z"/>
</g>
</svg>
